Griffith_Gothic-Condensed_Light.ufo
<glyph name="quotedbl" format="1">
  <advance width="275"/>
  <unicode hex="0022"/>
  <outline>
    <contour>
      <point x="231" y="720" type="line"/>
      <point x="213" y="515" type="line"/>
      <point x="186" y="515" type="line"/>
      <point x="169" y="720" type="line"/>
    </contour>
    <contour>
      <point x="107" y="720" type="line"/>
      <point x="89" y="515" type="line"/>
      <point x="62" y="515" type="line"/>
      <point x="44" y="720" type="line"/>
    </contour>
  </outline>
</glyph>
<glyph name="dollar" format="1">
  <advance width="426"/>
  <unicode hex="0024"/>
  <outline>
    <contour>
      <point x="399" y="184" type="curve" smooth="yes"/>
      <point x="399" y="70"/>
      <point x="325" y="6"/>
      <point x="235" y="-1" type="curve"/>
      <point x="235" y="-95" type="line"/>
      <point x="196" y="-95" type="line"/>
      <point x="196" y="-1" type="line"/>
      <point x="126" y="4"/>
      <point x="71" y="38"/>
      <point x="24" y="103" type="curve"/>
      <point x="62" y="139" type="line"/>
      <point x="101" y="83"/>
      <point x="144" y="52"/>
      <point x="198" y="47" type="curve"/>
      <point x="198" y="352" type="line"/>
      <point x="106" y="392"/>
      <point x="41" y="447"/>
      <point x="41" y="549" type="curve" smooth="yes"/>
      <point x="41" y="647"/>
      <point x="106" y="715"/>
      <point x="196" y="721" type="curve"/>
      <point x="196" y="762" type="line"/>
      <point x="235" y="762" type="line"/>
      <point x="235" y="721" type="line"/>
      <point x="297" y="715"/>
      <point x="343" y="685"/>
      <point x="387" y="628" type="curve"/>
      <point x="348" y="592" type="line"/>
      <point x="311" y="642"/>
      <point x="275" y="668"/>
      <point x="233" y="673" type="curve"/>
      <point x="233" y="396" type="line"/>
      <point x="350" y="344"/>
      <point x="399" y="283"/>
    </contour>
    <contour>
      <point x="198" y="412" type="curve"/>
      <point x="198" y="675" type="line"/>
      <point x="135" y="670"/>
      <point x="97" y="622"/>
      <point x="97" y="554" type="curve" smooth="yes"/>
      <point x="97" y="487"/>
      <point x="130" y="445"/>
    </contour>
    <contour>
      <point x="342" y="178" type="curve" smooth="yes"/>
      <point x="342" y="249"/>
      <point x="317" y="293"/>
      <point x="233" y="335" type="curve"/>
      <point x="233" y="45" type="line"/>
      <point x="301" y="52"/>
      <point x="342" y="99"/>
    </contour>
  </outline>
</glyph>
<glyph name="quotesingle" format="1">
  <advance width="151"/>
  <unicode hex="0027"/>
  <outline>
    <contour>
      <point x="107" y="720" type="line"/>
      <point x="90" y="515" type="line"/>
      <point x="62" y="515" type="line"/>
      <point x="44" y="720" type="line"/>
    </contour>
  </outline>
</glyph>
<glyph name="asterisk" format="1">
  <advance width="330"/>
  <unicode hex="002A"/>
  <outline>
    <contour>
      <point x="300" y="607" type="line"/>
      <point x="183" y="584" type="line"/>
      <point x="268" y="495" type="line"/>
      <point x="226" y="465" type="line"/>
      <point x="165" y="573" type="line"/>
      <point x="104" y="465" type="line"/>
      <point x="62" y="495" type="line"/>
      <point x="147" y="584" type="line"/>
      <point x="30" y="607" type="line"/>
      <point x="45" y="654" type="line"/>
      <point x="154" y="601" type="line"/>
      <point x="140" y="720" type="line"/>
      <point x="190" y="720" type="line"/>
      <point x="176" y="601" type="line"/>
      <point x="285" y="654" type="line"/>
    </contour>
  </outline>
</glyph>
<glyph name="plus" format="1">
  <advance width="471"/>
  <unicode hex="002B"/>
  <outline>
    <contour>
      <point x="436" y="330" type="line"/>
      <point x="262" y="330" type="line"/>
      <point x="262" y="147" type="line"/>
      <point x="210" y="147" type="line"/>
      <point x="210" y="330" type="line"/>
      <point x="35" y="330" type="line"/>
      <point x="35" y="380" type="line"/>
      <point x="210" y="380" type="line"/>
      <point x="210" y="563" type="line"/>
      <point x="262" y="563" type="line"/>
      <point x="262" y="380" type="line"/>
      <point x="436" y="380" type="line"/>
    </contour>
  </outline>
</glyph>
<glyph name="three" format="1">
  <advance width="409"/>
  <unicode hex="0033"/>
  <outline>
    <contour>
      <point x="377" y="252" type="curve" smooth="yes"/>
      <point x="377" y="88"/>
      <point x="215" y="-8"/>
      <point x="15" y="-6" type="curve"/>
      <point x="15" y="43" type="line"/>
      <point x="194" y="44"/>
      <point x="315" y="122"/>
      <point x="315" y="251" type="curve" smooth="yes"/>
      <point x="315" y="327"/>
      <point x="281" y="364"/>
      <point x="219" y="364" type="curve" smooth="yes"/>
      <point x="187" y="364"/>
      <point x="163" y="358"/>
      <point x="140" y="350" type="curve"/>
      <point x="126" y="393" type="line"/>
      <point x="234" y="445"/>
      <point x="285" y="495"/>
      <point x="285" y="575" type="curve" smooth="yes"/>
      <point x="285" y="639"/>
      <point x="254" y="683"/>
      <point x="198" y="683" type="curve" smooth="yes"/>
      <point x="147" y="683"/>
      <point x="110" y="652"/>
      <point x="74" y="592" type="curve"/>
      <point x="37" y="622" type="line"/>
      <point x="78" y="688"/>
      <point x="128" y="732"/>
      <point x="204" y="732" type="curve" smooth="yes"/>
      <point x="294" y="732"/>
      <point x="346" y="673"/>
      <point x="346" y="587" type="curve" smooth="yes"/>
      <point x="346" y="500"/>
      <point x="295" y="445"/>
      <point x="217" y="403" type="curve"/>
      <point x="218" y="399" type="line"/>
      <point x="307" y="413"/>
      <point x="377" y="364"/>
    </contour>
  </outline>
</glyph>
<glyph name="four" format="1">
  <advance width="447"/>
  <unicode hex="0034"/>
  <outline>
    <contour>
      <point x="418" y="204" type="line"/>
      <point x="345" y="204" type="line"/>
      <point x="345" y="0" type="line"/>
      <point x="286" y="0" type="line"/>
      <point x="286" y="204" type="line"/>
      <point x="30" y="204" type="line"/>
      <point x="30" y="262" type="line"/>
      <point x="263" y="720" type="line"/>
      <point x="345" y="720" type="line"/>
      <point x="345" y="245" type="line"/>
      <point x="418" y="245" type="line"/>
    </contour>
    <contour>
      <point x="286" y="245" type="line"/>
      <point x="286" y="657" type="line"/>
      <point x="278" y="657" type="line"/>
      <point x="74" y="255" type="line"/>
      <point x="74" y="245" type="line"/>
    </contour>
  </outline>
</glyph>
<glyph name="seven" format="1">
  <advance width="393"/>
  <unicode hex="0037"/>
  <outline>
    <contour>
      <point x="379" y="682" type="line"/>
      <point x="269" y="501"/>
      <point x="176" y="227"/>
      <point x="143" y="0" type="curve"/>
      <point x="82" y="0" type="line"/>
      <point x="111" y="198"/>
      <point x="205" y="485"/>
      <point x="316" y="669" type="curve"/>
      <point x="16" y="669" type="line"/>
      <point x="16" y="720" type="line"/>
      <point x="379" y="720" type="line"/>
    </contour>
  </outline>
</glyph>
<glyph name="eight" format="1">
  <advance width="461"/>
  <unicode hex="0038"/>
  <outline>
    <contour>
      <point x="424" y="192" type="curve" smooth="yes"/>
      <point x="424" y="60"/>
      <point x="332" y="-12"/>
      <point x="230" y="-12" type="curve" smooth="yes"/>
      <point x="128" y="-12"/>
      <point x="37" y="58"/>
      <point x="37" y="190" type="curve" smooth="yes"/>
      <point x="37" y="293"/>
      <point x="89" y="360"/>
      <point x="151" y="382" type="curve"/>
      <point x="151" y="388" type="line"/>
      <point x="98" y="411"/>
      <point x="52" y="467"/>
      <point x="52" y="551" type="curve" smooth="yes"/>
      <point x="52" y="660"/>
      <point x="130" y="732"/>
      <point x="230" y="732" type="curve" smooth="yes"/>
      <point x="330" y="732"/>
      <point x="408" y="662"/>
      <point x="408" y="553" type="curve" smooth="yes"/>
      <point x="408" y="470"/>
      <point x="362" y="412"/>
      <point x="309" y="388" type="curve"/>
      <point x="309" y="382" type="line"/>
      <point x="371" y="360"/>
      <point x="424" y="295"/>
    </contour>
    <contour>
      <point x="348" y="545" type="curve" smooth="yes"/>
      <point x="348" y="630"/>
      <point x="304" y="686"/>
      <point x="230" y="686" type="curve" smooth="yes"/>
      <point x="156" y="686"/>
      <point x="112" y="630"/>
      <point x="112" y="547" type="curve" smooth="yes"/>
      <point x="112" y="459"/>
      <point x="162" y="403"/>
      <point x="230" y="403" type="curve" smooth="yes"/>
      <point x="297" y="403"/>
      <point x="348" y="456"/>
    </contour>
    <contour>
      <point x="363" y="194" type="curve" smooth="yes"/>
      <point x="363" y="299"/>
      <point x="305" y="364"/>
      <point x="230" y="364" type="curve" smooth="yes"/>
      <point x="155" y="364"/>
      <point x="98" y="301"/>
      <point x="98" y="196" type="curve" smooth="yes"/>
      <point x="98" y="94"/>
      <point x="153" y="34"/>
      <point x="230" y="34" type="curve" smooth="yes"/>
      <point x="307" y="34"/>
      <point x="363" y="92"/>
    </contour>
  </outline>
</glyph>
<glyph name="semicolon" format="1">
  <advance width="174"/>
  <unicode hex="003B"/>
  <outline>
    <contour>
      <point x="130" y="479" type="curve" smooth="yes"/>
      <point x="130" y="455"/>
      <point x="112" y="437"/>
      <point x="88" y="437" type="curve" smooth="yes"/>
      <point x="63" y="437"/>
      <point x="46" y="455"/>
      <point x="46" y="479" type="curve" smooth="yes"/>
      <point x="46" y="504"/>
      <point x="63" y="521"/>
      <point x="88" y="521" type="curve" smooth="yes"/>
      <point x="112" y="521"/>
      <point x="130" y="504"/>
    </contour>
    <contour>
      <point x="120" y="91" type="line"/>
      <point x="52" y="-109" type="line"/>
      <point x="25" y="-109" type="line"/>
      <point x="56" y="91" type="line"/>
    </contour>
  </outline>
</glyph>
<glyph name="less" format="1">
  <advance width="471"/>
  <unicode hex="003C"/>
  <outline>
    <contour>
      <point x="427" y="146" type="line"/>
      <point x="37" y="329" type="line"/>
      <point x="37" y="381" type="line"/>
      <point x="427" y="565" type="line"/>
      <point x="427" y="509" type="line"/>
      <point x="91" y="355" type="line"/>
      <point x="427" y="202" type="line"/>
    </contour>
  </outline>
</glyph>
<glyph name="equal" format="1">
  <advance width="470"/>
  <unicode hex="003D"/>
  <outline>
    <contour>
      <point x="425" y="429" type="line"/>
      <point x="46" y="429" type="line"/>
      <point x="46" y="480" type="line"/>
      <point x="425" y="480" type="line"/>
    </contour>
    <contour>
      <point x="425" y="235" type="line"/>
      <point x="46" y="235" type="line"/>
      <point x="46" y="285" type="line"/>
      <point x="425" y="285" type="line"/>
    </contour>
  </outline>
</glyph>
<glyph name="greater" format="1">
  <advance width="471"/>
  <unicode hex="003E"/>
  <outline>
    <contour>
      <point x="434" y="330" type="line"/>
      <point x="43" y="146" type="line"/>
      <point x="43" y="202" type="line"/>
      <point x="380" y="356" type="line"/>
      <point x="43" y="509" type="line"/>
      <point x="43" y="565" type="line"/>
      <point x="434" y="381" type="line"/>
    </contour>
  </outline>
</glyph>
<glyph name="question" format="1">
  <advance width="355"/>
  <unicode hex="003F"/>
  <outline>
    <contour>
      <point x="320" y="569" type="curve" smooth="yes"/>
      <point x="320" y="486"/>
      <point x="295" y="448"/>
      <point x="238" y="377" type="curve" smooth="yes"/>
      <point x="194" y="322"/>
      <point x="182" y="289"/>
      <point x="181" y="187" type="curve"/>
      <point x="146" y="187" type="line"/>
      <point x="141" y="309"/>
      <point x="150" y="350"/>
      <point x="204" y="418" type="curve" smooth="yes"/>
      <point x="245" y="469"/>
      <point x="261" y="510"/>
      <point x="261" y="565" type="curve" smooth="yes"/>
      <point x="261" y="634"/>
      <point x="228" y="681"/>
      <point x="174" y="681" type="curve" smooth="yes"/>
      <point x="121" y="681"/>
      <point x="90" y="643"/>
      <point x="68" y="565" type="curve"/>
      <point x="19" y="583" type="line"/>
      <point x="41" y="678"/>
      <point x="92" y="732"/>
      <point x="178" y="732" type="curve" smooth="yes"/>
      <point x="266" y="732"/>
      <point x="320" y="666"/>
    </contour>
    <contour>
      <point x="206" y="35" type="curve" smooth="yes"/>
      <point x="206" y="10"/>
      <point x="189" y="-7"/>
      <point x="164" y="-7" type="curve" smooth="yes"/>
      <point x="139" y="-7"/>
      <point x="122" y="10"/>
      <point x="122" y="35" type="curve" smooth="yes"/>
      <point x="122" y="60"/>
      <point x="139" y="77"/>
      <point x="164" y="77" type="curve" smooth="yes"/>
      <point x="189" y="77"/>
      <point x="206" y="60"/>
    </contour>
  </outline>
</glyph>
<glyph name="A" format="1">
  <advance width="525"/>
  <unicode hex="0041"/>
  <outline>
    <contour>
      <point x="503" y="0" type="line"/>
      <point x="439" y="0" type="line"/>
      <point x="388" y="192" type="line"/>
      <point x="133" y="192" type="line"/>
      <point x="83" y="0" type="line"/>
      <point x="21" y="0" type="line"/>
      <point x="218" y="724" type="line"/>
      <point x="307" y="724" type="line"/>
    </contour>
    <contour>
      <point x="378" y="240" type="line"/>
      <point x="264" y="666" type="line"/>
      <point x="258" y="666" type="line"/>
      <point x="144" y="240" type="line"/>
    </contour>
  </outline>
</glyph>
<glyph name="B" format="1">
  <advance width="478"/>
  <unicode hex="0042"/>
  <outline>
    <contour>
      <point x="444" y="200" type="curve" smooth="yes"/>
      <point x="444" y="70"/>
      <point x="359" y="0"/>
      <point x="234" y="0" type="curve" smooth="yes"/>
      <point x="65" y="0" type="line"/>
      <point x="65" y="720" type="line"/>
      <point x="237" y="720" type="line" smooth="yes"/>
      <point x="349" y="720"/>
      <point x="419" y="654"/>
      <point x="419" y="550" type="curve" smooth="yes"/>
      <point x="419" y="459"/>
      <point x="368" y="412"/>
      <point x="306" y="391" type="curve"/>
      <point x="306" y="387" type="line"/>
      <point x="388" y="367"/>
      <point x="444" y="312"/>
    </contour>
    <contour>
      <point x="359" y="546" type="curve" smooth="yes"/>
      <point x="359" y="630"/>
      <point x="310" y="674"/>
      <point x="231" y="674" type="curve" smooth="yes"/>
      <point x="127" y="674" type="line"/>
      <point x="127" y="409" type="line"/>
      <point x="227" y="409" type="line" smooth="yes"/>
      <point x="306" y="409"/>
      <point x="359" y="453"/>
    </contour>
    <contour>
      <point x="382" y="199" type="curve" smooth="yes"/>
      <point x="382" y="303"/>
      <point x="337" y="363"/>
      <point x="229" y="363" type="curve" smooth="yes"/>
      <point x="127" y="363" type="line"/>
      <point x="127" y="46" type="line"/>
      <point x="231" y="46" type="line" smooth="yes"/>
      <point x="323" y="46"/>
      <point x="382" y="96"/>
    </contour>
  </outline>
</glyph>
<glyph name="D" format="1">
  <advance width="481"/>
  <unicode hex="0044"/>
  <outline>
    <contour>
      <point x="439" y="320" type="line" smooth="yes"/>
      <point x="439" y="117"/>
      <point x="350" y="0"/>
      <point x="192" y="0" type="curve" smooth="yes"/>
      <point x="65" y="0" type="line"/>
      <point x="65" y="720" type="line"/>
      <point x="196" y="720" type="line" smooth="yes"/>
      <point x="353" y="720"/>
      <point x="439" y="603"/>
      <point x="439" y="401" type="curve" smooth="yes"/>
    </contour>
    <contour>
      <point x="376" y="310" type="curve" smooth="yes"/>
      <point x="376" y="408" type="line" smooth="yes"/>
      <point x="376" y="576"/>
      <point x="312" y="672"/>
      <point x="192" y="672" type="curve" smooth="yes"/>
      <point x="128" y="672" type="line"/>
      <point x="128" y="48" type="line"/>
      <point x="195" y="48" type="line" smooth="yes"/>
      <point x="310" y="48"/>
      <point x="376" y="144"/>
    </contour>
  </outline>
</glyph>
<glyph name="J" format="1">
  <advance width="390"/>
  <unicode hex="004A"/>
  <outline>
    <contour>
      <point x="327" y="183" type="line" smooth="yes"/>
      <point x="327" y="58"/>
      <point x="270" y="-12"/>
      <point x="172" y="-12" type="curve" smooth="yes"/>
      <point x="77" y="-12"/>
      <point x="21" y="48"/>
      <point x="19" y="174" type="curve"/>
      <point x="76" y="194" type="line"/>
      <point x="79" y="79"/>
      <point x="116" y="38"/>
      <point x="174" y="38" type="curve" smooth="yes"/>
      <point x="230" y="38"/>
      <point x="264" y="83"/>
      <point x="264" y="181" type="curve" smooth="yes"/>
      <point x="264" y="720" type="line"/>
      <point x="327" y="720" type="line"/>
    </contour>
  </outline>
</glyph>
<glyph name="K" format="1">
  <advance width="470"/>
  <unicode hex="004B"/>
  <outline>
    <contour>
      <point x="468" y="0" type="line"/>
      <point x="396" y="0" type="line"/>
      <point x="151" y="387" type="line"/>
      <point x="151" y="389" type="line"/>
      <point x="386" y="720" type="line"/>
      <point x="457" y="720" type="line"/>
      <point x="220" y="391" type="line"/>
    </contour>
    <contour>
      <point x="128" y="0" type="line"/>
      <point x="65" y="0" type="line"/>
      <point x="65" y="720" type="line"/>
      <point x="128" y="720" type="line"/>
    </contour>
  </outline>
</glyph>
<glyph name="L" format="1">
  <advance width="390"/>
  <unicode hex="004C"/>
  <outline>
    <contour>
      <point x="382" y="0" type="line"/>
      <point x="65" y="0" type="line"/>
      <point x="65" y="720" type="line"/>
      <point x="128" y="720" type="line"/>
      <point x="128" y="51" type="line"/>
      <point x="382" y="51" type="line"/>
    </contour>
  </outline>
</glyph>
<glyph name="M" format="1">
  <advance width="653"/>
  <unicode hex="004D"/>
  <outline>
    <contour>
      <point x="589" y="0" type="line"/>
      <point x="529" y="0" type="line"/>
      <point x="529" y="650" type="line"/>
      <point x="523" y="650" type="line"/>
      <point x="362" y="0" type="line"/>
      <point x="290" y="0" type="line"/>
      <point x="126" y="650" type="line"/>
      <point x="120" y="650" type="line"/>
      <point x="120" y="0" type="line"/>
      <point x="65" y="0" type="line"/>
      <point x="65" y="720" type="line"/>
      <point x="165" y="720" type="line"/>
      <point x="325" y="77" type="line"/>
      <point x="331" y="77" type="line"/>
      <point x="490" y="720" type="line"/>
      <point x="589" y="720" type="line"/>
    </contour>
  </outline>
</glyph>
<glyph name="O" format="1">
  <advance width="484"/>
  <unicode hex="004F"/>
  <outline>
    <contour>
      <point x="443" y="318" type="line" smooth="yes"/>
      <point x="443" y="115"/>
      <point x="369" y="-12"/>
      <point x="242" y="-12" type="curve" smooth="yes"/>
      <point x="115" y="-12"/>
      <point x="41" y="114"/>
      <point x="41" y="317" type="curve" smooth="yes"/>
      <point x="41" y="402" type="line" smooth="yes"/>
      <point x="41" y="605"/>
      <point x="115" y="732"/>
      <point x="242" y="732" type="curve" smooth="yes"/>
      <point x="369" y="732"/>
      <point x="443" y="606"/>
      <point x="443" y="403" type="curve" smooth="yes"/>
    </contour>
    <contour>
      <point x="380" y="307" type="curve" smooth="yes"/>
      <point x="380" y="411" type="line" smooth="yes"/>
      <point x="380" y="564"/>
      <point x="336" y="684"/>
      <point x="242" y="684" type="curve" smooth="yes"/>
      <point x="148" y="684"/>
      <point x="104" y="566"/>
      <point x="104" y="413" type="curve" smooth="yes"/>
      <point x="104" y="309" type="line" smooth="yes"/>
      <point x="104" y="155"/>
      <point x="148" y="36"/>
      <point x="242" y="36" type="curve" smooth="yes"/>
      <point x="336" y="36"/>
      <point x="380" y="153"/>
    </contour>
  </outline>
</glyph>
<glyph name="Q" format="1">
  <advance width="484"/>
  <unicode hex="0051"/>
  <outline>
    <contour>
      <point x="476" y="-99" type="line"/>
      <point x="465" y="-103"/>
      <point x="453" y="-104"/>
      <point x="443" y="-104" type="curve" smooth="yes"/>
      <point x="401" y="-104"/>
      <point x="378" y="-90"/>
      <point x="352" y="-41" type="curve" smooth="yes"/>
      <point x="325" y="11" type="line"/>
      <point x="301" y="-5"/>
      <point x="273" y="-12"/>
      <point x="242" y="-12" type="curve" smooth="yes"/>
      <point x="115" y="-12"/>
      <point x="41" y="114"/>
      <point x="41" y="317" type="curve" smooth="yes"/>
      <point x="41" y="402" type="line" smooth="yes"/>
      <point x="41" y="605"/>
      <point x="115" y="732"/>
      <point x="242" y="732" type="curve" smooth="yes"/>
      <point x="369" y="732"/>
      <point x="443" y="606"/>
      <point x="443" y="403" type="curve" smooth="yes"/>
      <point x="443" y="318" type="line" smooth="yes"/>
      <point x="443" y="190"/>
      <point x="413" y="91"/>
      <point x="358" y="36" type="curve"/>
      <point x="393" y="-22" type="line" smooth="yes"/>
      <point x="409" y="-48"/>
      <point x="422" y="-59"/>
      <point x="447" y="-59" type="curve" smooth="yes"/>
      <point x="457" y="-59"/>
      <point x="465" y="-57"/>
      <point x="476" y="-54" type="curve"/>
    </contour>
    <contour>
      <point x="381" y="301" type="curve" smooth="yes"/>
      <point x="381" y="410" type="line" smooth="yes"/>
      <point x="381" y="564"/>
      <point x="337" y="684"/>
      <point x="243" y="684" type="curve" smooth="yes"/>
      <point x="148" y="684"/>
      <point x="104" y="566"/>
      <point x="104" y="412" type="curve" smooth="yes"/>
      <point x="104" y="308" type="line" smooth="yes"/>
      <point x="104" y="154"/>
      <point x="148" y="35"/>
      <point x="243" y="35" type="curve" smooth="yes"/>
      <point x="266" y="35"/>
      <point x="286" y="42"/>
      <point x="303" y="55" type="curve"/>
      <point x="228" y="195" type="line"/>
      <point x="256" y="213" type="line"/>
      <point x="330" y="83" type="line"/>
      <point x="362" y="128"/>
      <point x="381" y="209"/>
    </contour>
  </outline>
</glyph>
<glyph name="S" format="1">
  <advance width="444"/>
  <unicode hex="0053"/>
  <outline>
    <contour>
      <point x="408" y="181" type="curve" smooth="yes"/>
      <point x="408" y="56"/>
      <point x="326" y="-12"/>
      <point x="230" y="-12" type="curve" smooth="yes"/>
      <point x="125" y="-12"/>
      <point x="66" y="44"/>
      <point x="35" y="157" type="curve"/>
      <point x="81" y="186" type="line"/>
      <point x="109" y="84"/>
      <point x="157" y="38"/>
      <point x="231" y="38" type="curve" smooth="yes"/>
      <point x="298" y="38"/>
      <point x="348" y="90"/>
      <point x="348" y="176" type="curve" smooth="yes"/>
      <point x="348" y="254"/>
      <point x="317" y="300"/>
      <point x="214" y="345" type="curve" smooth="yes"/>
      <point x="98" y="395"/>
      <point x="52" y="451"/>
      <point x="52" y="556" type="curve" smooth="yes"/>
      <point x="52" y="650"/>
      <point x="116" y="732"/>
      <point x="214" y="732" type="curve" smooth="yes"/>
      <point x="304" y="732"/>
      <point x="360" y="683"/>
      <point x="392" y="589" type="curve"/>
      <point x="345" y="559" type="line"/>
      <point x="317" y="640"/>
      <point x="279" y="682"/>
      <point x="214" y="682" type="curve" smooth="yes"/>
      <point x="145" y="682"/>
      <point x="111" y="621"/>
      <point x="111" y="562" type="curve" smooth="yes"/>
      <point x="111" y="487"/>
      <point x="142" y="446"/>
      <point x="242" y="403" type="curve" smooth="yes"/>
      <point x="363" y="350"/>
      <point x="408" y="289"/>
    </contour>
  </outline>
</glyph>
<glyph name="T" format="1">
  <advance width="448"/>
  <unicode hex="0054"/>
  <outline>
    <contour>
      <point x="431" y="670" type="line"/>
      <point x="255" y="670" type="line"/>
      <point x="255" y="0" type="line"/>
      <point x="193" y="0" type="line"/>
      <point x="193" y="670" type="line"/>
      <point x="17" y="670" type="line"/>
      <point x="17" y="720" type="line"/>
      <point x="431" y="720" type="line"/>
    </contour>
  </outline>
</glyph>
<glyph name="U" format="1">
  <advance width="491"/>
  <unicode hex="0055"/>
  <outline>
    <contour>
      <point x="429" y="220" type="line" smooth="yes"/>
      <point x="429" y="56"/>
      <point x="353" y="-12"/>
      <point x="246" y="-12" type="curve" smooth="yes"/>
      <point x="138" y="-12"/>
      <point x="61" y="56"/>
      <point x="61" y="221" type="curve" smooth="yes"/>
      <point x="61" y="720" type="line"/>
      <point x="124" y="720" type="line"/>
      <point x="124" y="216" type="line" smooth="yes"/>
      <point x="124" y="92"/>
      <point x="175" y="37"/>
      <point x="248" y="37" type="curve" smooth="yes"/>
      <point x="321" y="37"/>
      <point x="370" y="90"/>
      <point x="370" y="213" type="curve" smooth="yes"/>
      <point x="370" y="720" type="line"/>
      <point x="429" y="720" type="line"/>
    </contour>
  </outline>
</glyph>
<glyph name="W" format="1">
  <advance width="756"/>
  <unicode hex="0057"/>
  <outline>
    <contour>
      <point x="732" y="720" type="line"/>
      <point x="587" y="-6" type="line"/>
      <point x="507" y="-6" type="line"/>
      <point x="381" y="643" type="line"/>
      <point x="375" y="643" type="line"/>
      <point x="249" y="-6" type="line"/>
      <point x="169" y="-6" type="line"/>
      <point x="23" y="720" type="line"/>
      <point x="87" y="720" type="line"/>
      <point x="209" y="71" type="line"/>
      <point x="214" y="71" type="line"/>
      <point x="335" y="720" type="line"/>
      <point x="422" y="720" type="line"/>
      <point x="544" y="71" type="line"/>
      <point x="550" y="71" type="line"/>
      <point x="671" y="720" type="line"/>
    </contour>
  </outline>
</glyph>
<glyph name="X" format="1">
  <advance width="493"/>
  <unicode hex="0058"/>
  <outline>
    <contour>
      <point x="470" y="0" type="line"/>
      <point x="400" y="0" type="line"/>
      <point x="245" y="320" type="line"/>
      <point x="86" y="0" type="line"/>
      <point x="23" y="0" type="line"/>
      <point x="210" y="370" type="line"/>
      <point x="35" y="720" type="line"/>
      <point x="105" y="720" type="line"/>
      <point x="249" y="423" type="line"/>
      <point x="395" y="720" type="line"/>
      <point x="458" y="720" type="line"/>
      <point x="283" y="372" type="line"/>
    </contour>
  </outline>
</glyph>
<glyph name="Y" format="1">
  <advance width="485"/>
  <unicode hex="0059"/>
  <outline>
    <contour>
      <point x="472" y="720" type="line"/>
      <point x="274" y="279" type="line"/>
      <point x="274" y="0" type="line"/>
      <point x="211" y="0" type="line"/>
      <point x="211" y="278" type="line"/>
      <point x="13" y="720" type="line"/>
      <point x="81" y="720" type="line"/>
      <point x="246" y="337" type="line"/>
      <point x="409" y="720" type="line"/>
    </contour>
  </outline>
</glyph>
<glyph name="Z" format="1">
  <advance width="429"/>
  <unicode hex="005A"/>
  <outline>
    <contour>
      <point x="402" y="0" type="line"/>
      <point x="27" y="0" type="line"/>
      <point x="27" y="43" type="line"/>
      <point x="333" y="670" type="line"/>
      <point x="42" y="670" type="line"/>
      <point x="42" y="720" type="line"/>
      <point x="402" y="720" type="line"/>
      <point x="402" y="677" type="line"/>
      <point x="97" y="50" type="line"/>
      <point x="402" y="50" type="line"/>
    </contour>
  </outline>
</glyph>
<glyph name="bracketleft" format="1">
  <advance width="273"/>
  <unicode hex="005B"/>
  <outline>
    <contour>
      <point x="254" y="-80" type="line"/>
      <point x="63" y="-88" type="line"/>
      <point x="63" y="728" type="line"/>
      <point x="254" y="720" type="line"/>
      <point x="254" y="684" type="line"/>
      <point x="117" y="691" type="line"/>
      <point x="117" y="-51" type="line"/>
      <point x="254" y="-44" type="line"/>
    </contour>
  </outline>
</glyph>
<glyph name="backslash" format="1">
  <advance width="299"/>
  <unicode hex="005C"/>
  <outline>
    <contour>
      <point x="309" y="-95" type="line"/>
      <point x="257" y="-95" type="line"/>
      <point x="13" y="735" type="line"/>
      <point x="65" y="735" type="line"/>
    </contour>
  </outline>
</glyph>
<glyph name="asciicircum" format="1">
  <advance width="398"/>
  <unicode hex="005E"/>
  <outline>
    <contour>
      <point x="360" y="464" type="line"/>
      <point x="320" y="464" type="line"/>
      <point x="199" y="663" type="line"/>
      <point x="78" y="464" type="line"/>
      <point x="39" y="464" type="line"/>
      <point x="170" y="725" type="line"/>
      <point x="228" y="725" type="line"/>
    </contour>
  </outline>
</glyph>
<glyph name="underscore" format="1">
  <advance width="395"/>
  <unicode hex="005F"/>
  <outline>
    <contour>
      <point x="398" y="-86" type="line"/>
      <point x="-3" y="-86" type="line"/>
      <point x="-3" y="-50" type="line"/>
      <point x="398" y="-50" type="line"/>
    </contour>
  </outline>
</glyph>
<glyph name="grave" format="1">
  <advance width="392"/>
  <unicode hex="0060"/>
  <outline>
    <contour>
      <point x="261" y="578" type="line"/>
      <point x="222" y="578" type="line"/>
      <point x="114" y="699" type="line"/>
      <point x="189" y="699" type="line"/>
    </contour>
  </outline>
</glyph>
<glyph name="b" format="1">
  <advance width="406"/>
  <unicode hex="0062"/>
  <outline>
    <contour>
      <point x="375" y="245" type="line" smooth="yes"/>
      <point x="375" y="81"/>
      <point x="312" y="-10"/>
      <point x="240" y="-10" type="curve" smooth="yes"/>
      <point x="189" y="-10"/>
      <point x="149" y="37"/>
      <point x="121" y="93" type="curve"/>
      <point x="116" y="93" type="line"/>
      <point x="116" y="-9" type="line"/>
      <point x="57" y="12" type="line"/>
      <point x="57" y="740" type="line"/>
      <point x="116" y="761" type="line"/>
      <point x="116" y="419" type="line"/>
      <point x="121" y="419" type="line"/>
      <point x="151" y="479"/>
      <point x="188" y="526"/>
      <point x="243" y="526" type="curve" smooth="yes"/>
      <point x="316" y="526"/>
      <point x="375" y="439"/>
      <point x="375" y="273" type="curve" smooth="yes"/>
    </contour>
    <contour>
      <point x="317" y="258" type="curve" smooth="yes"/>
      <point x="317" y="412"/>
      <point x="276" y="480"/>
      <point x="222" y="480" type="curve" smooth="yes"/>
      <point x="163" y="480"/>
      <point x="111" y="378"/>
      <point x="111" y="258" type="curve" smooth="yes"/>
      <point x="111" y="139"/>
      <point x="162" y="37"/>
      <point x="225" y="37" type="curve" smooth="yes"/>
      <point x="278" y="37"/>
      <point x="317" y="111"/>
    </contour>
  </outline>
</glyph>
<glyph name="c" format="1">
  <advance width="352"/>
  <unicode hex="0063"/>
  <outline>
    <contour>
      <point x="327" y="127" type="line"/>
      <point x="308" y="46"/>
      <point x="263" y="-10"/>
      <point x="189" y="-10" type="curve" smooth="yes"/>
      <point x="94" y="-10"/>
      <point x="34" y="86"/>
      <point x="34" y="230" type="curve" smooth="yes"/>
      <point x="34" y="285" type="line" smooth="yes"/>
      <point x="34" y="427"/>
      <point x="96" y="527"/>
      <point x="188" y="527" type="curve" smooth="yes"/>
      <point x="268" y="527"/>
      <point x="307" y="466"/>
      <point x="325" y="387" type="curve"/>
      <point x="275" y="374" type="line"/>
      <point x="259" y="439"/>
      <point x="236" y="483"/>
      <point x="187" y="483" type="curve" smooth="yes"/>
      <point x="129" y="483"/>
      <point x="92" y="403"/>
      <point x="92" y="289" type="curve" smooth="yes"/>
      <point x="92" y="229" type="line" smooth="yes"/>
      <point x="92" y="114"/>
      <point x="130" y="34"/>
      <point x="192" y="34" type="curve" smooth="yes"/>
      <point x="234" y="34"/>
      <point x="265" y="74"/>
      <point x="280" y="141" type="curve"/>
    </contour>
  </outline>
</glyph>
<glyph name="f" format="1">
  <advance width="252"/>
  <unicode hex="0066"/>
  <outline>
    <contour>
      <point x="267" y="698" type="line"/>
      <point x="249" y="709"/>
      <point x="234" y="715"/>
      <point x="209" y="715" type="curve" smooth="yes"/>
      <point x="174" y="715"/>
      <point x="150" y="693"/>
      <point x="150" y="639" type="curve" smooth="yes"/>
      <point x="150" y="512" type="line"/>
      <point x="246" y="512" type="line"/>
      <point x="246" y="469" type="line"/>
      <point x="150" y="469" type="line"/>
      <point x="150" y="0" type="line"/>
      <point x="92" y="0" type="line"/>
      <point x="92" y="469" type="line"/>
      <point x="11" y="469" type="line"/>
      <point x="11" y="512" type="line"/>
      <point x="92" y="512" type="line"/>
      <point x="92" y="641" type="line" smooth="yes"/>
      <point x="92" y="721"/>
      <point x="134" y="759"/>
      <point x="197" y="759" type="curve" smooth="yes"/>
      <point x="231" y="759"/>
      <point x="248" y="755"/>
      <point x="267" y="747" type="curve"/>
    </contour>
  </outline>
</glyph>
<glyph name="h" format="1">
  <advance width="392"/>
  <unicode hex="0068"/>
  <outline>
    <contour>
      <point x="341" y="0" type="line"/>
      <point x="281" y="0" type="line"/>
      <point x="281" y="405" type="line" smooth="yes"/>
      <point x="281" y="453"/>
      <point x="264" y="475"/>
      <point x="230" y="475" type="curve" smooth="yes"/>
      <point x="194" y="475"/>
      <point x="152" y="440"/>
      <point x="113" y="370" type="curve"/>
      <point x="113" y="0" type="line"/>
      <point x="54" y="0" type="line"/>
      <point x="54" y="740" type="line"/>
      <point x="113" y="761" type="line"/>
      <point x="113" y="416" type="line"/>
      <point x="117" y="416" type="line"/>
      <point x="160" y="480"/>
      <point x="200" y="522"/>
      <point x="256" y="522" type="curve" smooth="yes"/>
      <point x="313" y="522"/>
      <point x="341" y="480"/>
      <point x="341" y="417" type="curve" smooth="yes"/>
    </contour>
  </outline>
</glyph>
<glyph name="i" format="1">
  <advance width="179"/>
  <unicode hex="0069"/>
  <outline>
    <contour>
      <point x="123" y="643" type="line"/>
      <point x="56" y="643" type="line"/>
      <point x="56" y="720" type="line"/>
      <point x="123" y="720" type="line"/>
    </contour>
    <contour>
      <point x="119" y="0" type="line"/>
      <point x="60" y="0" type="line"/>
      <point x="60" y="517" type="line"/>
      <point x="119" y="517" type="line"/>
    </contour>
  </outline>
</glyph>
<glyph name="j" format="1">
  <advance width="179"/>
  <unicode hex="006A"/>
  <outline>
    <contour>
      <point x="123" y="643" type="line"/>
      <point x="56" y="643" type="line"/>
      <point x="56" y="720" type="line"/>
      <point x="123" y="720" type="line"/>
    </contour>
    <contour>
      <point x="119" y="-79" type="line" smooth="yes"/>
      <point x="119" y="-157"/>
      <point x="84" y="-190"/>
      <point x="23" y="-190" type="curve" smooth="yes"/>
      <point x="0" y="-190"/>
      <point x="-13" y="-188"/>
      <point x="-28" y="-182" type="curve"/>
      <point x="-28" y="-139" type="line"/>
      <point x="-17" y="-145"/>
      <point x="-4" y="-148"/>
      <point x="15" y="-148" type="curve" smooth="yes"/>
      <point x="41" y="-148"/>
      <point x="60" y="-129"/>
      <point x="60" y="-85" type="curve" smooth="yes"/>
      <point x="60" y="517" type="line"/>
      <point x="119" y="517" type="line"/>
    </contour>
  </outline>
</glyph>
<glyph name="m" format="1">
  <advance width="605"/>
  <unicode hex="006D"/>
  <outline>
    <contour>
      <point x="554" y="0" type="line"/>
      <point x="495" y="0" type="line"/>
      <point x="495" y="405" type="line" smooth="yes"/>
      <point x="495" y="451"/>
      <point x="480" y="475"/>
      <point x="447" y="475" type="curve" smooth="yes"/>
      <point x="411" y="475"/>
      <point x="370" y="441"/>
      <point x="333" y="368" type="curve"/>
      <point x="333" y="0" type="line"/>
      <point x="275" y="0" type="line"/>
      <point x="275" y="405" type="line" smooth="yes"/>
      <point x="275" y="451"/>
      <point x="260" y="475"/>
      <point x="226" y="475" type="curve" smooth="yes"/>
      <point x="190" y="475"/>
      <point x="150" y="441"/>
      <point x="113" y="368" type="curve"/>
      <point x="113" y="0" type="line"/>
      <point x="54" y="0" type="line"/>
      <point x="54" y="505" type="line"/>
      <point x="113" y="526" type="line"/>
      <point x="113" y="416" type="line"/>
      <point x="116" y="416" type="line"/>
      <point x="158" y="481"/>
      <point x="196" y="522"/>
      <point x="251" y="522" type="curve" smooth="yes"/>
      <point x="307" y="522"/>
      <point x="333" y="480"/>
      <point x="333" y="422" type="curve" smooth="yes"/>
      <point x="333" y="416" type="line"/>
      <point x="336" y="416" type="line"/>
      <point x="378" y="481"/>
      <point x="416" y="522"/>
      <point x="471" y="522" type="curve" smooth="yes"/>
      <point x="528" y="522"/>
      <point x="554" y="478"/>
      <point x="554" y="417" type="curve" smooth="yes"/>
    </contour>
  </outline>
</glyph>
<glyph name="r" format="1">
  <advance width="291"/>
  <unicode hex="0072"/>
  <outline>
    <contour>
      <point x="281" y="458" type="line"/>
      <point x="211" y="440"/>
      <point x="156" y="373"/>
      <point x="113" y="290" type="curve"/>
      <point x="113" y="0" type="line"/>
      <point x="54" y="0" type="line"/>
      <point x="54" y="505" type="line"/>
      <point x="113" y="526" type="line"/>
      <point x="113" y="344" type="line"/>
      <point x="118" y="344" type="line"/>
      <point x="171" y="449"/>
      <point x="222" y="513"/>
      <point x="281" y="526" type="curve"/>
    </contour>
  </outline>
</glyph>
<glyph name="s" format="1">
  <advance width="323"/>
  <unicode hex="0073"/>
  <outline>
    <contour>
      <point x="294" y="130" type="curve" smooth="yes"/>
      <point x="294" y="42"/>
      <point x="234" y="-8"/>
      <point x="162" y="-8" type="curve" smooth="yes"/>
      <point x="98" y="-8"/>
      <point x="54" y="26"/>
      <point x="21" y="75" type="curve"/>
      <point x="57" y="109" type="line"/>
      <point x="88" y="62"/>
      <point x="122" y="35"/>
      <point x="164" y="35" type="curve" smooth="yes"/>
      <point x="211" y="35"/>
      <point x="243" y="72"/>
      <point x="243" y="123" type="curve" smooth="yes"/>
      <point x="243" y="177"/>
      <point x="224" y="203"/>
      <point x="152" y="242" type="curve" smooth="yes"/>
      <point x="73" y="284"/>
      <point x="35" y="325"/>
      <point x="35" y="396" type="curve" smooth="yes"/>
      <point x="35" y="473"/>
      <point x="89" y="525"/>
      <point x="161" y="525" type="curve" smooth="yes"/>
      <point x="214" y="525"/>
      <point x="253" y="499"/>
      <point x="285" y="456" type="curve"/>
      <point x="250" y="421" type="line"/>
      <point x="221" y="462"/>
      <point x="194" y="482"/>
      <point x="160" y="482" type="curve" smooth="yes"/>
      <point x="114" y="482"/>
      <point x="88" y="447"/>
      <point x="88" y="402" type="curve" smooth="yes"/>
      <point x="88" y="354"/>
      <point x="113" y="327"/>
      <point x="175" y="294" type="curve" smooth="yes"/>
      <point x="260" y="249"/>
      <point x="294" y="206"/>
    </contour>
  </outline>
</glyph>
<glyph name="v" format="1">
  <advance width="362"/>
  <unicode hex="0076"/>
  <outline>
    <contour>
      <point x="343" y="517" type="line"/>
      <point x="215" y="-6" type="line"/>
      <point x="147" y="-6" type="line"/>
      <point x="20" y="517" type="line"/>
      <point x="79" y="517" type="line"/>
      <point x="183" y="60" type="line"/>
      <point x="287" y="517" type="line"/>
    </contour>
  </outline>
</glyph>
<glyph name="w" format="1">
  <advance width="598"/>
  <unicode hex="0077"/>
  <outline>
    <contour>
      <point x="577" y="517" type="line"/>
      <point x="453" y="-4" type="line"/>
      <point x="392" y="-4" type="line"/>
      <point x="300" y="429" type="line"/>
      <point x="206" y="-4" type="line"/>
      <point x="145" y="-4" type="line"/>
      <point x="21" y="517" type="line"/>
      <point x="80" y="517" type="line"/>
      <point x="179" y="72" type="line"/>
      <point x="271" y="517" type="line"/>
      <point x="331" y="517" type="line"/>
      <point x="423" y="72" type="line"/>
      <point x="521" y="517" type="line"/>
    </contour>
  </outline>
</glyph>
<glyph name="x" format="1">
  <advance width="377"/>
  <unicode hex="0078"/>
  <outline>
    <contour>
      <point x="355" y="0" type="line"/>
      <point x="290" y="0" type="line"/>
      <point x="186" y="212" type="line"/>
      <point x="79" y="0" type="line"/>
      <point x="23" y="0" type="line"/>
      <point x="158" y="261" type="line"/>
      <point x="28" y="517" type="line"/>
      <point x="92" y="517" type="line"/>
      <point x="191" y="314" type="line"/>
      <point x="293" y="517" type="line"/>
      <point x="350" y="517" type="line"/>
      <point x="219" y="265" type="line"/>
    </contour>
  </outline>
</glyph>
<glyph name="y" format="1">
  <advance width="364"/>
  <unicode hex="0079"/>
  <outline>
    <contour>
      <point x="343" y="517" type="line"/>
      <point x="194" y="-73" type="line" smooth="yes"/>
      <point x="173" y="-158"/>
      <point x="138" y="-190"/>
      <point x="78" y="-190" type="curve" smooth="yes"/>
      <point x="46" y="-190"/>
      <point x="30" y="-184"/>
      <point x="12" y="-175" type="curve"/>
      <point x="12" y="-125" type="line"/>
      <point x="31" y="-125" type="line"/>
      <point x="40" y="-142"/>
      <point x="51" y="-153"/>
      <point x="79" y="-153" type="curve" smooth="yes"/>
      <point x="106" y="-153"/>
      <point x="128" y="-132"/>
      <point x="139" y="-89" type="curve" smooth="yes"/>
      <point x="156" y="-25" type="line"/>
      <point x="20" y="517" type="line"/>
      <point x="79" y="517" type="line"/>
      <point x="183" y="56" type="line"/>
      <point x="287" y="517" type="line"/>
    </contour>
  </outline>
</glyph>
<glyph name="z" format="1">
  <advance width="330"/>
  <unicode hex="007A"/>
  <outline>
    <contour>
      <point x="306" y="0" type="line"/>
      <point x="23" y="0" type="line"/>
      <point x="23" y="38" type="line"/>
      <point x="242" y="468" type="line"/>
      <point x="35" y="468" type="line"/>
      <point x="35" y="512" type="line"/>
      <point x="306" y="512" type="line"/>
      <point x="306" y="474" type="line"/>
      <point x="86" y="45" type="line"/>
      <point x="306" y="45" type="line"/>
    </contour>
  </outline>
</glyph>
<glyph name="braceleft" format="1">
  <advance width="302"/>
  <unicode hex="007B"/>
  <outline>
    <contour>
      <point x="276" y="-80" type="line"/>
      <point x="220" y="-80" type="line" smooth="yes"/>
      <point x="144" y="-80"/>
      <point x="106" y="-39"/>
      <point x="106" y="44" type="curve" smooth="yes"/>
      <point x="106" y="90"/>
      <point x="122" y="159"/>
      <point x="122" y="201" type="curve" smooth="yes"/>
      <point x="122" y="272"/>
      <point x="77" y="301"/>
      <point x="18" y="301" type="curve"/>
      <point x="18" y="339" type="line"/>
      <point x="77" y="339"/>
      <point x="122" y="368"/>
      <point x="122" y="439" type="curve" smooth="yes"/>
      <point x="122" y="481"/>
      <point x="106" y="550"/>
      <point x="106" y="596" type="curve" smooth="yes"/>
      <point x="106" y="679"/>
      <point x="144" y="720"/>
      <point x="220" y="720" type="curve" smooth="yes"/>
      <point x="276" y="720" type="line"/>
      <point x="276" y="684" type="line"/>
      <point x="234" y="684" type="line" smooth="yes"/>
      <point x="184" y="684"/>
      <point x="161" y="657"/>
      <point x="161" y="600" type="curve" smooth="yes"/>
      <point x="161" y="559"/>
      <point x="176" y="497"/>
      <point x="176" y="447" type="curve" smooth="yes"/>
      <point x="176" y="370"/>
      <point x="135" y="343"/>
      <point x="91" y="324" type="curve"/>
      <point x="91" y="316" type="line"/>
      <point x="135" y="297"/>
      <point x="176" y="270"/>
      <point x="176" y="193" type="curve" smooth="yes"/>
      <point x="176" y="143"/>
      <point x="161" y="81"/>
      <point x="161" y="40" type="curve" smooth="yes"/>
      <point x="161" y="-17"/>
      <point x="184" y="-44"/>
      <point x="234" y="-44" type="curve" smooth="yes"/>
      <point x="276" y="-44" type="line"/>
    </contour>
  </outline>
</glyph>
<glyph name="bar" format="1">
  <advance width="196"/>
  <unicode hex="007C"/>
  <outline>
    <contour>
      <point x="123" y="-188" type="line"/>
      <point x="74" y="-188" type="line"/>
      <point x="74" y="762" type="line"/>
      <point x="123" y="762" type="line"/>
    </contour>
  </outline>
</glyph>
<glyph name="braceright" format="1">
  <advance width="303"/>
  <unicode hex="007D"/>
  <outline>
    <contour>
      <point x="285" y="301" type="line"/>
      <point x="226" y="301"/>
      <point x="181" y="272"/>
      <point x="181" y="201" type="curve" smooth="yes"/>
      <point x="181" y="159"/>
      <point x="197" y="90"/>
      <point x="197" y="44" type="curve" smooth="yes"/>
      <point x="197" y="-39"/>
      <point x="159" y="-80"/>
      <point x="83" y="-80" type="curve" smooth="yes"/>
      <point x="27" y="-80" type="line"/>
      <point x="27" y="-44" type="line"/>
      <point x="69" y="-44" type="line" smooth="yes"/>
      <point x="119" y="-44"/>
      <point x="142" y="-17"/>
      <point x="142" y="40" type="curve" smooth="yes"/>
      <point x="142" y="81"/>
      <point x="127" y="143"/>
      <point x="127" y="193" type="curve" smooth="yes"/>
      <point x="127" y="270"/>
      <point x="168" y="297"/>
      <point x="213" y="316" type="curve"/>
      <point x="213" y="324" type="line"/>
      <point x="168" y="343"/>
      <point x="127" y="370"/>
      <point x="127" y="447" type="curve" smooth="yes"/>
      <point x="127" y="497"/>
      <point x="142" y="559"/>
      <point x="142" y="600" type="curve" smooth="yes"/>
      <point x="142" y="657"/>
      <point x="119" y="684"/>
      <point x="69" y="684" type="curve" smooth="yes"/>
      <point x="27" y="684" type="line"/>
      <point x="27" y="720" type="line"/>
      <point x="83" y="720" type="line" smooth="yes"/>
      <point x="159" y="720"/>
      <point x="197" y="679"/>
      <point x="197" y="596" type="curve" smooth="yes"/>
      <point x="197" y="550"/>
      <point x="181" y="481"/>
      <point x="181" y="439" type="curve" smooth="yes"/>
      <point x="181" y="368"/>
      <point x="226" y="339"/>
      <point x="285" y="339" type="curve"/>
    </contour>
  </outline>
</glyph>
<glyph name="asciitilde" format="1">
  <advance width="299"/>
  <unicode hex="007E"/>
  <outline>
    <contour>
      <point x="271" y="325" type="line"/>
      <point x="272" y="263"/>
      <point x="251" y="234"/>
      <point x="208" y="234" type="curve" smooth="yes"/>
      <point x="164" y="234"/>
      <point x="123" y="279"/>
      <point x="91" y="279" type="curve" smooth="yes"/>
      <point x="69" y="279"/>
      <point x="60" y="265"/>
      <point x="59" y="236" type="curve"/>
      <point x="28" y="236" type="line"/>
      <point x="27" y="299"/>
      <point x="48" y="327"/>
      <point x="91" y="327" type="curve" smooth="yes"/>
      <point x="136" y="327"/>
      <point x="177" y="283"/>
      <point x="208" y="283" type="curve" smooth="yes"/>
      <point x="230" y="283"/>
      <point x="240" y="297"/>
      <point x="240" y="325" type="curve"/>
    </contour>
  </outline>
</glyph>
<glyph name="cent" format="1">
  <advance width="358"/>
  <unicode hex="00A2"/>
  <outline>
    <contour>
      <point x="327" y="127" type="line"/>
      <point x="308" y="46"/>
      <point x="263" y="-10"/>
      <point x="189" y="-10" type="curve" smooth="yes"/>
      <point x="168" y="-10"/>
      <point x="151" y="-5"/>
      <point x="133" y="3" type="curve"/>
      <point x="102" y="-95" type="line"/>
      <point x="67" y="-95" type="line"/>
      <point x="105" y="22" type="line"/>
      <point x="61" y="61"/>
      <point x="34" y="135"/>
      <point x="34" y="230" type="curve" smooth="yes"/>
      <point x="34" y="293" type="line" smooth="yes"/>
      <point x="34" y="436"/>
      <point x="96" y="527"/>
      <point x="187" y="527" type="curve" smooth="yes"/>
      <point x="214" y="527"/>
      <point x="238" y="520"/>
      <point x="257" y="507" type="curve"/>
      <point x="289" y="612" type="line"/>
      <point x="324" y="612" type="line"/>
      <point x="150" y="47" type="line"/>
      <point x="163" y="37"/>
      <point x="177" y="33"/>
      <point x="192" y="33" type="curve" smooth="yes"/>
      <point x="235" y="33"/>
      <point x="266" y="73"/>
      <point x="282" y="141" type="curve"/>
    </contour>
    <contour>
      <point x="241" y="461" type="line"/>
      <point x="226" y="476"/>
      <point x="208" y="484"/>
      <point x="185" y="484" type="curve" smooth="yes"/>
      <point x="130" y="484"/>
      <point x="90" y="413"/>
      <point x="90" y="297" type="curve" smooth="yes"/>
      <point x="90" y="230" type="line" smooth="yes"/>
      <point x="90" y="161"/>
      <point x="104" y="109"/>
      <point x="126" y="73" type="curve"/>
    </contour>
  </outline>
</glyph>
<glyph name="yen" format="1">
  <advance width="477"/>
  <unicode hex="00A5"/>
  <outline>
    <contour>
      <point x="459" y="720" type="line"/>
      <point x="311" y="379" type="line"/>
      <point x="423" y="379" type="line"/>
      <point x="423" y="340" type="line"/>
      <point x="295" y="340" type="line"/>
      <point x="269" y="279" type="line"/>
      <point x="269" y="203" type="line"/>
      <point x="423" y="203" type="line"/>
      <point x="423" y="164" type="line"/>
      <point x="269" y="164" type="line"/>
      <point x="269" y="0" type="line"/>
      <point x="209" y="0" type="line"/>
      <point x="209" y="164" type="line"/>
      <point x="55" y="164" type="line"/>
      <point x="55" y="203" type="line"/>
      <point x="209" y="203" type="line"/>
      <point x="209" y="278" type="line"/>
      <point x="181" y="340" type="line"/>
      <point x="55" y="340" type="line"/>
      <point x="55" y="379" type="line"/>
      <point x="165" y="379" type="line"/>
      <point x="18" y="720" type="line"/>
      <point x="85" y="720" type="line"/>
      <point x="241" y="335" type="line"/>
      <point x="397" y="720" type="line"/>
    </contour>
  </outline>
</glyph>
<glyph name="dieresis" format="1">
  <advance width="392"/>
  <unicode hex="00A8"/>
  <outline>
    <contour>
      <point x="296" y="578" type="line"/>
      <point x="234" y="578" type="line"/>
      <point x="234" y="653" type="line"/>
      <point x="296" y="653" type="line"/>
    </contour>
    <contour>
      <point x="158" y="578" type="line"/>
      <point x="96" y="578" type="line"/>
      <point x="96" y="653" type="line"/>
      <point x="158" y="653" type="line"/>
    </contour>
  </outline>
</glyph>
<glyph name="degree" format="1">
  <advance width="321"/>
  <unicode hex="00B0"/>
  <outline>
    <contour>
      <point x="281" y="606" type="curve" smooth="yes"/>
      <point x="281" y="538"/>
      <point x="230" y="489"/>
      <point x="161" y="489" type="curve" smooth="yes"/>
      <point x="93" y="489"/>
      <point x="42" y="538"/>
      <point x="42" y="606" type="curve" smooth="yes"/>
      <point x="42" y="675"/>
      <point x="93" y="724"/>
      <point x="161" y="724" type="curve" smooth="yes"/>
      <point x="230" y="724"/>
      <point x="281" y="675"/>
    </contour>
    <contour>
      <point x="241" y="606" type="curve" smooth="yes"/>
      <point x="241" y="654"/>
      <point x="208" y="689"/>
      <point x="161" y="689" type="curve" smooth="yes"/>
      <point x="115" y="689"/>
      <point x="82" y="654"/>
      <point x="82" y="606" type="curve" smooth="yes"/>
      <point x="82" y="559"/>
      <point x="115" y="524"/>
      <point x="161" y="524" type="curve" smooth="yes"/>
      <point x="208" y="524"/>
      <point x="241" y="559"/>
    </contour>
  </outline>
</glyph>
<glyph name="acute" format="1">
  <advance width="392"/>
  <unicode hex="00B4"/>
  <outline>
    <contour>
      <point x="278" y="699" type="line"/>
      <point x="169" y="578" type="line"/>
      <point x="131" y="578" type="line"/>
      <point x="202" y="699" type="line"/>
    </contour>
  </outline>
</glyph>
<glyph name="paragraph" format="1">
  <advance width="434"/>
  <unicode hex="00B6"/>
  <outline>
    <contour>
      <point x="369" y="0" type="line"/>
      <point x="330" y="0" type="line"/>
      <point x="330" y="683" type="line"/>
      <point x="246" y="683" type="line"/>
      <point x="246" y="0" type="line"/>
      <point x="206" y="0" type="line"/>
      <point x="206" y="363" type="line"/>
      <point x="107" y="372"/>
      <point x="28" y="428"/>
      <point x="28" y="545" type="curve" smooth="yes"/>
      <point x="28" y="663"/>
      <point x="106" y="720"/>
      <point x="217" y="720" type="curve" smooth="yes"/>
      <point x="369" y="720" type="line"/>
    </contour>
  </outline>
</glyph>
<glyph name="periodcentered" format="1">
  <advance width="156"/>
  <unicode hex="00B7"/>
  <outline>
    <contour>
      <point x="120" y="278" type="curve" smooth="yes"/>
      <point x="120" y="253"/>
      <point x="102" y="236"/>
      <point x="78" y="236" type="curve" smooth="yes"/>
      <point x="53" y="236"/>
      <point x="36" y="253"/>
      <point x="36" y="278" type="curve" smooth="yes"/>
      <point x="36" y="303"/>
      <point x="53" y="320"/>
      <point x="78" y="320" type="curve" smooth="yes"/>
      <point x="102" y="320"/>
      <point x="120" y="303"/>
    </contour>
  </outline>
</glyph>
<glyph name="cedilla" format="1">
  <advance width="392"/>
  <unicode hex="00B8"/>
  <outline>
    <contour>
      <point x="288" y="-84" type="curve" smooth="yes"/>
      <point x="288" y="-134"/>
      <point x="230" y="-159"/>
      <point x="122" y="-157" type="curve"/>
      <point x="122" y="-137" type="line"/>
      <point x="212" y="-135"/>
      <point x="245" y="-118"/>
      <point x="245" y="-91" type="curve" smooth="yes"/>
      <point x="245" y="-77"/>
      <point x="234" y="-68"/>
      <point x="214" y="-68" type="curve" smooth="yes"/>
      <point x="198" y="-68"/>
      <point x="184" y="-71"/>
      <point x="171" y="-78" type="curve"/>
      <point x="153" y="-65" type="line"/>
      <point x="191" y="0" type="line"/>
      <point x="220" y="0" type="line"/>
      <point x="195" y="-44" type="line"/>
      <point x="206" y="-39"/>
      <point x="217" y="-36"/>
      <point x="232" y="-36" type="curve" smooth="yes"/>
      <point x="267" y="-36"/>
      <point x="288" y="-53"/>
    </contour>
  </outline>
</glyph>
<glyph name="guillemotright" format="1">
  <advance width="358"/>
  <unicode hex="00BB"/>
  <outline>
    <contour>
      <point x="340" y="258" type="line"/>
      <point x="215" y="78" type="line"/>
      <point x="179" y="78" type="line"/>
      <point x="273" y="258" type="line"/>
      <point x="179" y="439" type="line"/>
      <point x="215" y="439" type="line"/>
    </contour>
    <contour>
      <point x="190" y="258" type="line"/>
      <point x="66" y="78" type="line"/>
      <point x="29" y="78" type="line"/>
      <point x="124" y="258" type="line"/>
      <point x="29" y="439" type="line"/>
      <point x="66" y="439" type="line"/>
    </contour>
  </outline>
</glyph>
<glyph name="AE" format="1">
  <advance width="723"/>
  <unicode hex="00C6"/>
  <outline>
    <contour>
      <point x="696" y="0" type="line"/>
      <point x="365" y="0" type="line"/>
      <point x="365" y="194" type="line"/>
      <point x="154" y="194" type="line"/>
      <point x="75" y="0" type="line"/>
      <point x="12" y="0" type="line"/>
      <point x="307" y="720" type="line"/>
      <point x="687" y="720" type="line"/>
      <point x="687" y="670" type="line"/>
      <point x="428" y="670" type="line"/>
      <point x="428" y="401" type="line"/>
      <point x="641" y="401" type="line"/>
      <point x="641" y="352" type="line"/>
      <point x="428" y="352" type="line"/>
      <point x="428" y="50" type="line"/>
      <point x="696" y="50" type="line"/>
    </contour>
    <contour>
      <point x="365" y="241" type="line"/>
      <point x="365" y="670" type="line"/>
      <point x="346" y="670" type="line"/>
      <point x="170" y="241" type="line"/>
    </contour>
  </outline>
</glyph>
<glyph name="Ccedilla" format="1">
  <advance width="453"/>
  <unicode hex="00C7"/>
  <outline>
    <contour>
      <point x="424" y="207" type="line"/>
      <point x="401" y="77"/>
      <point x="352" y="-7"/>
      <point x="247" y="-12" type="curve"/>
      <point x="229" y="-44" type="line"/>
      <point x="240" y="-39"/>
      <point x="251" y="-36"/>
      <point x="266" y="-36" type="curve" smooth="yes"/>
      <point x="301" y="-36"/>
      <point x="322" y="-53"/>
      <point x="322" y="-84" type="curve" smooth="yes"/>
      <point x="322" y="-134"/>
      <point x="264" y="-159"/>
      <point x="156" y="-157" type="curve"/>
      <point x="156" y="-137" type="line"/>
      <point x="246" y="-135"/>
      <point x="279" y="-118"/>
      <point x="279" y="-91" type="curve" smooth="yes"/>
      <point x="279" y="-77"/>
      <point x="268" y="-68"/>
      <point x="248" y="-68" type="curve" smooth="yes"/>
      <point x="232" y="-68"/>
      <point x="218" y="-71"/>
      <point x="205" y="-78" type="curve"/>
      <point x="187" y="-65" type="line"/>
      <point x="219" y="-11" type="line"/>
      <point x="108" y="0"/>
      <point x="41" y="124"/>
      <point x="41" y="317" type="curve" smooth="yes"/>
      <point x="41" y="402" type="line" smooth="yes"/>
      <point x="41" y="605"/>
      <point x="115" y="732"/>
      <point x="237" y="732" type="curve" smooth="yes"/>
      <point x="342" y="732"/>
      <point x="397" y="654"/>
      <point x="420" y="528" type="curve"/>
      <point x="362" y="510" type="line"/>
      <point x="342" y="621"/>
      <point x="307" y="683"/>
      <point x="237" y="683" type="curve" smooth="yes"/>
      <point x="148" y="683"/>
      <point x="104" y="567"/>
      <point x="104" y="408" type="curve" smooth="yes"/>
      <point x="104" y="314" type="line" smooth="yes"/>
      <point x="104" y="154"/>
      <point x="150" y="37"/>
      <point x="239" y="37" type="curve" smooth="yes"/>
      <point x="310" y="37"/>
      <point x="345" y="99"/>
      <point x="368" y="221" type="curve"/>
    </contour>
  </outline>
</glyph>
<glyph name="Eth" format="1">
  <advance width="506"/>
  <unicode hex="00D0"/>
  <outline>
    <contour>
      <point x="464" y="320" type="line" smooth="yes"/>
      <point x="464" y="117"/>
      <point x="375" y="0"/>
      <point x="217" y="0" type="curve" smooth="yes"/>
      <point x="90" y="0" type="line"/>
      <point x="90" y="352" type="line"/>
      <point x="20" y="352" type="line"/>
      <point x="20" y="401" type="line"/>
      <point x="90" y="401" type="line"/>
      <point x="90" y="720" type="line"/>
      <point x="221" y="720" type="line" smooth="yes"/>
      <point x="378" y="720"/>
      <point x="464" y="603"/>
      <point x="464" y="401" type="curve" smooth="yes"/>
    </contour>
    <contour>
      <point x="401" y="310" type="curve" smooth="yes"/>
      <point x="401" y="408" type="line" smooth="yes"/>
      <point x="401" y="576"/>
      <point x="337" y="672"/>
      <point x="217" y="672" type="curve" smooth="yes"/>
      <point x="153" y="672" type="line"/>
      <point x="153" y="401" type="line"/>
      <point x="257" y="401" type="line"/>
      <point x="257" y="352" type="line"/>
      <point x="153" y="352" type="line"/>
      <point x="153" y="48" type="line"/>
      <point x="220" y="48" type="line" smooth="yes"/>
      <point x="335" y="48"/>
      <point x="401" y="144"/>
    </contour>
  </outline>
</glyph>
<glyph name="multiply" format="1">
  <advance width="476"/>
  <unicode hex="00D7"/>
  <outline>
    <contour>
      <point x="417" y="209" type="line"/>
      <point x="384" y="175" type="line"/>
      <point x="237" y="322" type="line"/>
      <point x="92" y="175" type="line"/>
      <point x="58" y="209" type="line"/>
      <point x="205" y="355" type="line"/>
      <point x="58" y="500" type="line"/>
      <point x="92" y="534" type="line"/>
      <point x="237" y="386" type="line"/>
      <point x="384" y="534" type="line"/>
      <point x="417" y="500" type="line"/>
      <point x="270" y="355" type="line"/>
    </contour>
  </outline>
</glyph>
<glyph name="Oslash" format="1">
  <advance width="484"/>
  <unicode hex="00D8"/>
  <outline>
    <contour>
      <point x="445" y="817" type="line"/>
      <point x="381" y="658" type="line"/>
      <point x="422" y="601"/>
      <point x="443" y="513"/>
      <point x="443" y="403" type="curve" smooth="yes"/>
      <point x="443" y="318" type="line" smooth="yes"/>
      <point x="443" y="115"/>
      <point x="369" y="-12"/>
      <point x="242" y="-12" type="curve" smooth="yes"/>
      <point x="199" y="-12"/>
      <point x="160" y="5"/>
      <point x="131" y="32" type="curve"/>
      <point x="81" y="-97" type="line"/>
      <point x="39" y="-97" type="line"/>
      <point x="103" y="62" type="line"/>
      <point x="63" y="119"/>
      <point x="41" y="206"/>
      <point x="41" y="317" type="curve" smooth="yes"/>
      <point x="41" y="402" type="line" smooth="yes"/>
      <point x="41" y="605"/>
      <point x="115" y="732"/>
      <point x="242" y="732" type="curve" smooth="yes"/>
      <point x="285" y="732"/>
      <point x="323" y="717"/>
      <point x="353" y="688" type="curve"/>
      <point x="403" y="817" type="line"/>
    </contour>
    <contour>
      <point x="332" y="635" type="line"/>
      <point x="309" y="667"/>
      <point x="280" y="685"/>
      <point x="242" y="685" type="curve" smooth="yes"/>
      <point x="148" y="685"/>
      <point x="104" y="567"/>
      <point x="104" y="413" type="curve" smooth="yes"/>
      <point x="104" y="320" type="line" smooth="yes"/>
      <point x="104" y="248"/>
      <point x="111" y="178"/>
      <point x="131" y="125" type="curve"/>
    </contour>
    <contour>
      <point x="380" y="307" type="curve" smooth="yes"/>
      <point x="380" y="400" type="line" smooth="yes"/>
      <point x="380" y="480"/>
      <point x="373" y="542"/>
      <point x="353" y="595" type="curve"/>
      <point x="152" y="85" type="line"/>
      <point x="174" y="54"/>
      <point x="205" y="35"/>
      <point x="242" y="35" type="curve" smooth="yes"/>
      <point x="336" y="35"/>
      <point x="380" y="152"/>
    </contour>
  </outline>
</glyph>
<glyph name="ae" format="1">
  <advance width="596"/>
  <unicode hex="00E6"/>
  <outline>
    <contour>
      <point x="564" y="247" type="line"/>
      <point x="319" y="247" type="line"/>
      <point x="319" y="228" type="line" smooth="yes"/>
      <point x="319" y="106"/>
      <point x="363" y="37"/>
      <point x="434" y="37" type="curve" smooth="yes"/>
      <point x="474" y="37"/>
      <point x="509" y="57"/>
      <point x="540" y="92" type="curve"/>
      <point x="562" y="55" type="line"/>
      <point x="527" y="17"/>
      <point x="483" y="-10"/>
      <point x="427" y="-10" type="curve" smooth="yes"/>
      <point x="365" y="-10"/>
      <point x="316" y="26"/>
      <point x="290" y="89" type="curve"/>
      <point x="289" y="89" type="line"/>
      <point x="249" y="23"/>
      <point x="200" y="-8"/>
      <point x="144" y="-8" type="curve" smooth="yes"/>
      <point x="75" y="-8"/>
      <point x="25" y="39"/>
      <point x="25" y="124" type="curve" smooth="yes"/>
      <point x="25" y="221"/>
      <point x="103" y="295"/>
      <point x="263" y="308" type="curve"/>
      <point x="263" y="383" type="line" smooth="yes"/>
      <point x="263" y="447"/>
      <point x="241" y="476"/>
      <point x="196" y="476" type="curve" smooth="yes"/>
      <point x="155" y="476"/>
      <point x="121" y="460"/>
      <point x="75" y="432" type="curve"/>
      <point x="56" y="472" type="line"/>
      <point x="101" y="500"/>
      <point x="148" y="522"/>
      <point x="209" y="522" type="curve" smooth="yes"/>
      <point x="271" y="522"/>
      <point x="295" y="491"/>
      <point x="301" y="432" type="curve"/>
      <point x="305" y="432" type="line"/>
      <point x="326" y="490"/>
      <point x="364" y="527"/>
      <point x="417" y="527" type="curve" smooth="yes"/>
      <point x="509" y="527"/>
      <point x="564" y="421"/>
      <point x="564" y="259" type="curve" smooth="yes"/>
    </contour>
    <contour>
      <point x="508" y="283" type="line"/>
      <point x="505" y="401"/>
      <point x="471" y="486"/>
      <point x="416" y="486" type="curve" smooth="yes"/>
      <point x="354" y="486"/>
      <point x="319" y="405"/>
      <point x="319" y="286" type="curve" smooth="yes"/>
      <point x="319" y="283" type="line"/>
    </contour>
    <contour>
      <point x="276" y="128" type="curve"/>
      <point x="268" y="156"/>
      <point x="264" y="191"/>
      <point x="264" y="231" type="curve" smooth="yes"/>
      <point x="264" y="232"/>
      <point x="264" y="275"/>
      <point x="264" y="275" type="curve"/>
      <point x="133" y="263"/>
      <point x="82" y="199"/>
      <point x="82" y="130" type="curve" smooth="yes"/>
      <point x="82" y="71"/>
      <point x="114" y="35"/>
      <point x="161" y="35" type="curve" smooth="yes"/>
      <point x="198" y="35"/>
      <point x="240" y="60"/>
    </contour>
  </outline>
</glyph>
<glyph name="ccedilla" format="1">
  <advance width="352"/>
  <unicode hex="00E7"/>
  <outline>
    <contour>
      <point x="327" y="127" type="line"/>
      <point x="308" y="48"/>
      <point x="266" y="-7"/>
      <point x="195" y="-10" type="curve"/>
      <point x="175" y="-44" type="line"/>
      <point x="187" y="-39"/>
      <point x="198" y="-36"/>
      <point x="212" y="-36" type="curve" smooth="yes"/>
      <point x="247" y="-36"/>
      <point x="269" y="-53"/>
      <point x="269" y="-84" type="curve" smooth="yes"/>
      <point x="269" y="-134"/>
      <point x="210" y="-159"/>
      <point x="102" y="-157" type="curve"/>
      <point x="102" y="-137" type="line"/>
      <point x="193" y="-135"/>
      <point x="225" y="-118"/>
      <point x="225" y="-91" type="curve" smooth="yes"/>
      <point x="225" y="-77"/>
      <point x="214" y="-68"/>
      <point x="195" y="-68" type="curve" smooth="yes"/>
      <point x="178" y="-68"/>
      <point x="165" y="-71"/>
      <point x="151" y="-78" type="curve"/>
      <point x="134" y="-65" type="line"/>
      <point x="168" y="-8" type="line"/>
      <point x="85" y="5"/>
      <point x="34" y="98"/>
      <point x="34" y="230" type="curve" smooth="yes"/>
      <point x="34" y="285" type="line" smooth="yes"/>
      <point x="34" y="427"/>
      <point x="96" y="527"/>
      <point x="188" y="527" type="curve" smooth="yes"/>
      <point x="268" y="527"/>
      <point x="307" y="466"/>
      <point x="325" y="387" type="curve"/>
      <point x="275" y="374" type="line"/>
      <point x="259" y="439"/>
      <point x="236" y="483"/>
      <point x="187" y="483" type="curve" smooth="yes"/>
      <point x="129" y="483"/>
      <point x="92" y="403"/>
      <point x="92" y="289" type="curve" smooth="yes"/>
      <point x="92" y="229" type="line" smooth="yes"/>
      <point x="92" y="114"/>
      <point x="130" y="34"/>
      <point x="192" y="34" type="curve" smooth="yes"/>
      <point x="234" y="34"/>
      <point x="265" y="74"/>
      <point x="280" y="141" type="curve"/>
    </contour>
  </outline>
</glyph>
<glyph name="eth" format="1">
  <advance width="390"/>
  <unicode hex="00F0"/>
  <outline>
    <contour>
      <point x="356" y="240" type="line" smooth="yes"/>
      <point x="356" y="92"/>
      <point x="292" y="-10"/>
      <point x="193" y="-10" type="curve" smooth="yes"/>
      <point x="94" y="-10"/>
      <point x="34" y="92"/>
      <point x="34" y="240" type="curve" smooth="yes"/>
      <point x="34" y="276" type="line" smooth="yes"/>
      <point x="34" y="425"/>
      <point x="93" y="525"/>
      <point x="186" y="525" type="curve" smooth="yes"/>
      <point x="238" y="525"/>
      <point x="274" y="482"/>
      <point x="296" y="425" type="curve"/>
      <point x="300" y="425" type="line"/>
      <point x="291" y="510"/>
      <point x="256" y="588"/>
      <point x="209" y="653" type="curve"/>
      <point x="121" y="587" type="line"/>
      <point x="121" y="625" type="line"/>
      <point x="191" y="678" type="line"/>
      <point x="173" y="699"/>
      <point x="155" y="720"/>
      <point x="135" y="739" type="curve"/>
      <point x="179" y="762" type="line"/>
      <point x="196" y="744"/>
      <point x="213" y="725"/>
      <point x="230" y="702" type="curve"/>
      <point x="313" y="762" type="line"/>
      <point x="313" y="725" type="line"/>
      <point x="248" y="678" type="line"/>
      <point x="306" y="593"/>
      <point x="356" y="474"/>
      <point x="356" y="285" type="curve" smooth="yes"/>
    </contour>
    <contour>
      <point x="298" y="234" type="curve" smooth="yes"/>
      <point x="298" y="282" type="line" smooth="yes"/>
      <point x="298" y="404"/>
      <point x="257" y="485"/>
      <point x="194" y="485" type="curve" smooth="yes"/>
      <point x="132" y="485"/>
      <point x="92" y="404"/>
      <point x="92" y="282" type="curve" smooth="yes"/>
      <point x="92" y="234" type="line" smooth="yes"/>
      <point x="92" y="113"/>
      <point x="133" y="32"/>
      <point x="196" y="32" type="curve" smooth="yes"/>
      <point x="259" y="32"/>
      <point x="298" y="113"/>
    </contour>
  </outline>
</glyph>
<glyph name="oslash" format="1">
  <advance width="390"/>
  <unicode hex="00F8"/>
  <outline>
    <contour>
      <point x="357" y="612" type="line"/>
      <point x="301" y="475" type="line"/>
      <point x="337" y="431"/>
      <point x="357" y="362"/>
      <point x="357" y="278" type="curve" smooth="yes"/>
      <point x="357" y="239" type="line" smooth="yes"/>
      <point x="357" y="94"/>
      <point x="294" y="-10"/>
      <point x="194" y="-10" type="curve" smooth="yes"/>
      <point x="165" y="-10"/>
      <point x="139" y="1"/>
      <point x="117" y="18" type="curve"/>
      <point x="72" y="-95" type="line"/>
      <point x="34" y="-95" type="line"/>
      <point x="90" y="42" type="line"/>
      <point x="54" y="86"/>
      <point x="34" y="155"/>
      <point x="34" y="239" type="curve" smooth="yes"/>
      <point x="34" y="278" type="line" smooth="yes"/>
      <point x="34" y="423"/>
      <point x="96" y="527"/>
      <point x="196" y="527" type="curve" smooth="yes"/>
      <point x="226" y="527"/>
      <point x="253" y="517"/>
      <point x="274" y="499" type="curve"/>
      <point x="319" y="612" type="line"/>
    </contour>
    <contour>
      <point x="256" y="451" type="line"/>
      <point x="240" y="475"/>
      <point x="218" y="486"/>
      <point x="194" y="486" type="curve" smooth="yes"/>
      <point x="131" y="486"/>
      <point x="92" y="400"/>
      <point x="92" y="281" type="curve" smooth="yes"/>
      <point x="92" y="233" type="line" smooth="yes"/>
      <point x="92" y="187"/>
      <point x="101" y="131"/>
      <point x="116" y="96" type="curve"/>
    </contour>
    <contour>
      <point x="298" y="235" type="curve" smooth="yes"/>
      <point x="298" y="281" type="line" smooth="yes"/>
      <point x="298" y="332"/>
      <point x="291" y="384"/>
      <point x="275" y="421" type="curve"/>
      <point x="135" y="66" type="line"/>
      <point x="151" y="45"/>
      <point x="172" y="31"/>
      <point x="196" y="31" type="curve" smooth="yes"/>
      <point x="259" y="31"/>
      <point x="298" y="118"/>
    </contour>
  </outline>
</glyph>
<glyph name="dotlessi" format="1">
  <advance width="179"/>
  <unicode hex="0131"/>
  <outline>
    <contour>
      <point x="119" y="0" type="line"/>
      <point x="60" y="0" type="line"/>
      <point x="60" y="517" type="line"/>
      <point x="119" y="517" type="line"/>
    </contour>
  </outline>
</glyph>
<glyph name="lslash" format="1">
  <advance width="243"/>
  <unicode hex="0142"/>
  <outline>
    <contour>
      <point x="221" y="397" type="line"/>
      <point x="152" y="357" type="line"/>
      <point x="152" y="0" type="line"/>
      <point x="91" y="0" type="line"/>
      <point x="91" y="328" type="line"/>
      <point x="22" y="289" type="line"/>
      <point x="22" y="342" type="line"/>
      <point x="91" y="381" type="line"/>
      <point x="91" y="740" type="line"/>
      <point x="152" y="761" type="line"/>
      <point x="152" y="410" type="line"/>
      <point x="221" y="450" type="line"/>
    </contour>
  </outline>
</glyph>
<glyph name="OE" format="1">
  <advance width="710"/>
  <unicode hex="0152"/>
  <outline>
    <contour>
      <point x="683" y="0" type="line"/>
      <point x="284" y="0" type="line" smooth="yes"/>
      <point x="128" y="0"/>
      <point x="41" y="116"/>
      <point x="41" y="319" type="curve" smooth="yes"/>
      <point x="41" y="400" type="line" smooth="yes"/>
      <point x="41" y="605"/>
      <point x="132" y="720"/>
      <point x="288" y="720" type="curve" smooth="yes"/>
      <point x="673" y="720" type="line"/>
      <point x="673" y="670" type="line"/>
      <point x="414" y="670" type="line"/>
      <point x="414" y="401" type="line"/>
      <point x="628" y="401" type="line"/>
      <point x="628" y="352" type="line"/>
      <point x="414" y="352" type="line"/>
      <point x="414" y="50" type="line"/>
      <point x="683" y="50" type="line"/>
    </contour>
    <contour>
      <point x="352" y="47" type="line"/>
      <point x="352" y="673" type="line"/>
      <point x="285" y="673" type="line" smooth="yes"/>
      <point x="170" y="673"/>
      <point x="103" y="575"/>
      <point x="103" y="410" type="curve" smooth="yes"/>
      <point x="103" y="312" type="line" smooth="yes"/>
      <point x="103" y="145"/>
      <point x="168" y="47"/>
      <point x="288" y="47" type="curve" smooth="yes"/>
    </contour>
  </outline>
</glyph>
<glyph name="oe" format="1">
  <advance width="632"/>
  <unicode hex="0153"/>
  <outline>
    <contour>
      <point x="600" y="247" type="line"/>
      <point x="353" y="247" type="line"/>
      <point x="353" y="228" type="line" smooth="yes"/>
      <point x="353" y="106"/>
      <point x="399" y="37"/>
      <point x="470" y="37" type="curve" smooth="yes"/>
      <point x="510" y="37"/>
      <point x="545" y="57"/>
      <point x="576" y="92" type="curve"/>
      <point x="598" y="55" type="line"/>
      <point x="563" y="17"/>
      <point x="519" y="-10"/>
      <point x="464" y="-10" type="curve" smooth="yes"/>
      <point x="397" y="-10"/>
      <point x="350" y="39"/>
      <point x="331" y="122" type="curve"/>
      <point x="324" y="122" type="line"/>
      <point x="304" y="44"/>
      <point x="260" y="-10"/>
      <point x="194" y="-10" type="curve" smooth="yes"/>
      <point x="95" y="-10"/>
      <point x="34" y="94"/>
      <point x="34" y="239" type="curve" smooth="yes"/>
      <point x="34" y="278" type="line" smooth="yes"/>
      <point x="34" y="423"/>
      <point x="96" y="527"/>
      <point x="195" y="527" type="curve" smooth="yes"/>
      <point x="260" y="527"/>
      <point x="306" y="472"/>
      <point x="324" y="393" type="curve"/>
      <point x="330" y="393" type="line"/>
      <point x="348" y="473"/>
      <point x="393" y="527"/>
      <point x="454" y="527" type="curve" smooth="yes"/>
      <point x="545" y="527"/>
      <point x="600" y="421"/>
      <point x="600" y="259" type="curve" smooth="yes"/>
    </contour>
    <contour>
      <point x="544" y="283" type="line"/>
      <point x="542" y="401"/>
      <point x="507" y="486"/>
      <point x="453" y="486" type="curve" smooth="yes"/>
      <point x="390" y="486"/>
      <point x="353" y="405"/>
      <point x="353" y="286" type="curve" smooth="yes"/>
      <point x="353" y="283" type="line"/>
    </contour>
    <contour>
      <point x="300" y="231" type="curve" smooth="yes"/>
      <point x="300" y="286" type="line" smooth="yes"/>
      <point x="300" y="402"/>
      <point x="257" y="485"/>
      <point x="194" y="485" type="curve" smooth="yes"/>
      <point x="131" y="485"/>
      <point x="92" y="402"/>
      <point x="92" y="286" type="curve" smooth="yes"/>
      <point x="92" y="231" type="line" smooth="yes"/>
      <point x="92" y="114"/>
      <point x="133" y="32"/>
      <point x="196" y="32" type="curve" smooth="yes"/>
      <point x="259" y="32"/>
      <point x="300" y="114"/>
    </contour>
  </outline>
</glyph>
<glyph name="florin" format="1">
  <advance width="351"/>
  <unicode hex="0192"/>
  <outline>
    <contour>
      <point x="345" y="713" type="curve"/>
      <point x="341" y="665" type="line"/>
      <point x="320" y="675"/>
      <point x="303" y="678"/>
      <point x="280" y="678" type="curve" smooth="yes"/>
      <point x="243" y="678"/>
      <point x="217" y="654"/>
      <point x="209" y="597" type="curve" smooth="yes"/>
      <point x="189" y="457" type="line"/>
      <point x="291" y="457" type="line"/>
      <point x="284" y="410" type="line"/>
      <point x="183" y="410" type="line"/>
      <point x="115" y="-83" type="line" smooth="yes"/>
      <point x="104" y="-165"/>
      <point x="61" y="-190"/>
      <point x="9" y="-190" type="curve" smooth="yes"/>
      <point x="-12" y="-190"/>
      <point x="-34" y="-185"/>
      <point x="-48" y="-180" type="curve"/>
      <point x="-42" y="-133" type="line"/>
      <point x="-28" y="-138"/>
      <point x="-11" y="-142"/>
      <point x="6" y="-142" type="curve" smooth="yes"/>
      <point x="32" y="-142"/>
      <point x="50" y="-124"/>
      <point x="57" y="-76" type="curve" smooth="yes"/>
      <point x="125" y="410" type="line"/>
      <point x="43" y="410" type="line"/>
      <point x="50" y="457" type="line"/>
      <point x="131" y="457" type="line"/>
      <point x="151" y="600" type="line" smooth="yes"/>
      <point x="164" y="692"/>
      <point x="210" y="726"/>
      <point x="274" y="726" type="curve" smooth="yes"/>
      <point x="303" y="726"/>
      <point x="325" y="721"/>
    </contour>
  </outline>
</glyph>
<glyph name="circumflex" format="1">
  <advance width="392"/>
  <unicode hex="02C6"/>
  <outline>
    <contour>
      <point x="309" y="574" type="line"/>
      <point x="278" y="574" type="line"/>
      <point x="195" y="657" type="line"/>
      <point x="113" y="574" type="line"/>
      <point x="83" y="574" type="line"/>
      <point x="170" y="698" type="line"/>
      <point x="222" y="698" type="line"/>
    </contour>
  </outline>
</glyph>
<glyph name="caron" format="1">
  <advance width="392"/>
  <unicode hex="02C7"/>
  <outline>
    <contour>
      <point x="309" y="703" type="line"/>
      <point x="222" y="578" type="line"/>
      <point x="170" y="578" type="line"/>
      <point x="83" y="703" type="line"/>
      <point x="114" y="703" type="line"/>
      <point x="196" y="620" type="line"/>
      <point x="279" y="703" type="line"/>
    </contour>
  </outline>
</glyph>
<glyph name="breve" format="1">
  <advance width="392"/>
  <unicode hex="02D8"/>
  <outline>
    <contour>
      <point x="305" y="702" type="line"/>
      <point x="301" y="623"/>
      <point x="264" y="575"/>
      <point x="196" y="575" type="curve" smooth="yes"/>
      <point x="129" y="575"/>
      <point x="91" y="623"/>
      <point x="87" y="702" type="curve"/>
      <point x="117" y="702" type="line"/>
      <point x="124" y="646"/>
      <point x="152" y="620"/>
      <point x="196" y="620" type="curve" smooth="yes"/>
      <point x="239" y="620"/>
      <point x="268" y="646"/>
      <point x="276" y="702" type="curve"/>
    </contour>
  </outline>
</glyph>
<glyph name="dotaccent" format="1">
  <advance width="392"/>
  <unicode hex="02D9"/>
  <outline>
    <contour>
      <point x="230" y="578" type="line"/>
      <point x="162" y="578" type="line"/>
      <point x="162" y="653" type="line"/>
      <point x="230" y="653" type="line"/>
    </contour>
  </outline>
</glyph>
<glyph name="tilde" format="1">
  <advance width="392"/>
  <unicode hex="02DC"/>
  <outline>
    <contour>
      <point x="317" y="664" type="line"/>
      <point x="318" y="606"/>
      <point x="297" y="578"/>
      <point x="254" y="578" type="curve" smooth="yes"/>
      <point x="210" y="578"/>
      <point x="169" y="622"/>
      <point x="137" y="622" type="curve" smooth="yes"/>
      <point x="115" y="622"/>
      <point x="105" y="608"/>
      <point x="105" y="580" type="curve"/>
      <point x="75" y="580" type="line"/>
      <point x="73" y="639"/>
      <point x="95" y="666"/>
      <point x="137" y="666" type="curve" smooth="yes"/>
      <point x="184" y="666"/>
      <point x="224" y="623"/>
      <point x="255" y="623" type="curve" smooth="yes"/>
      <point x="277" y="623"/>
      <point x="287" y="637"/>
      <point x="287" y="664" type="curve"/>
    </contour>
  </outline>
</glyph>
<glyph name="hungarumlaut" format="1">
  <advance width="392"/>
  <unicode hex="02DD"/>
  <outline>
    <contour>
      <point x="338" y="699" type="line"/>
      <point x="230" y="578" type="line"/>
      <point x="195" y="578" type="line"/>
      <point x="266" y="699" type="line"/>
    </contour>
    <contour>
      <point x="202" y="699" type="line"/>
      <point x="93" y="578" type="line"/>
      <point x="58" y="578" type="line"/>
      <point x="129" y="699" type="line"/>
    </contour>
  </outline>
</glyph>
<glyph name="emdash" format="1">
  <advance width="790"/>
  <unicode hex="2014"/>
  <outline>
    <contour>
      <point x="760" y="255" type="line"/>
      <point x="30" y="255" type="line"/>
      <point x="30" y="306" type="line"/>
      <point x="760" y="306" type="line"/>
    </contour>
  </outline>
</glyph>
<glyph name="quoteleft" format="1">
  <advance width="147"/>
  <unicode hex="2018"/>
  <unicode hex="02BB"/>
  <outline>
    <contour>
      <point x="122" y="520" type="line"/>
      <point x="94" y="520" type="line"/>
      <point x="27" y="720" type="line"/>
      <point x="90" y="720" type="line"/>
    </contour>
  </outline>
</glyph>
<glyph name="quoteright" format="1">
  <advance width="156"/>
  <unicode hex="2019"/>
  <unicode hex="02BC"/>
  <outline>
    <contour>
      <point x="129" y="720" type="line"/>
      <point x="62" y="520" type="line"/>
      <point x="34" y="520" type="line"/>
      <point x="65" y="720" type="line"/>
    </contour>
  </outline>
</glyph>
<glyph name="quotedblright" format="1">
  <advance width="280"/>
  <unicode hex="201D"/>
  <outline>
    <contour>
      <point x="254" y="720" type="line"/>
      <point x="186" y="520" type="line"/>
      <point x="160" y="520" type="line"/>
      <point x="191" y="720" type="line"/>
    </contour>
    <contour>
      <point x="128" y="720" type="line"/>
      <point x="61" y="520" type="line"/>
      <point x="34" y="520" type="line"/>
      <point x="65" y="720" type="line"/>
    </contour>
  </outline>
</glyph>
<glyph name="dagger" format="1">
  <advance width="342"/>
  <unicode hex="2020"/>
  <outline>
    <contour>
      <point x="317" y="468" type="line"/>
      <point x="187" y="482" type="line"/>
      <point x="202" y="345" type="line"/>
      <point x="183" y="0" type="line"/>
      <point x="159" y="0" type="line"/>
      <point x="140" y="345" type="line"/>
      <point x="155" y="482" type="line"/>
      <point x="25" y="468" type="line"/>
      <point x="25" y="521" type="line"/>
      <point x="155" y="506" type="line"/>
      <point x="140" y="720" type="line"/>
      <point x="202" y="720" type="line"/>
      <point x="187" y="506" type="line"/>
      <point x="317" y="521" type="line"/>
    </contour>
  </outline>
</glyph>
<glyph name="daggerdbl" format="1">
  <advance width="364"/>
  <unicode hex="2021"/>
  <outline>
    <contour>
      <point x="327" y="179" type="line"/>
      <point x="197" y="194" type="line"/>
      <point x="213" y="0" type="line"/>
      <point x="150" y="0" type="line"/>
      <point x="166" y="194" type="line"/>
      <point x="36" y="179" type="line"/>
      <point x="36" y="232" type="line"/>
      <point x="166" y="218" type="line"/>
      <point x="150" y="360" type="line"/>
      <point x="166" y="502" type="line"/>
      <point x="36" y="488" type="line"/>
      <point x="36" y="541" type="line"/>
      <point x="166" y="526" type="line"/>
      <point x="150" y="720" type="line"/>
      <point x="213" y="720" type="line"/>
      <point x="197" y="526" type="line"/>
      <point x="327" y="541" type="line"/>
      <point x="327" y="488" type="line"/>
      <point x="197" y="502" type="line"/>
      <point x="212" y="360" type="line"/>
      <point x="197" y="218" type="line"/>
      <point x="327" y="232" type="line"/>
    </contour>
  </outline>
</glyph>
<glyph name="guilsinglright" format="1">
  <advance width="200"/>
  <unicode hex="203A"/>
  <outline>
    <contour>
      <point x="190" y="258" type="line"/>
      <point x="66" y="78" type="line"/>
      <point x="29" y="78" type="line"/>
      <point x="124" y="258" type="line"/>
      <point x="29" y="439" type="line"/>
      <point x="66" y="439" type="line"/>
    </contour>
  </outline>
</glyph>
<glyph name="trademark" format="1">
  <advance width="526"/>
  <unicode hex="2122"/>
  <outline>
    <contour>
      <point x="489" y="452" type="line"/>
      <point x="452" y="452" type="line"/>
      <point x="452" y="674" type="line"/>
      <point x="450" y="674" type="line"/>
      <point x="387" y="452" type="line"/>
      <point x="345" y="452" type="line"/>
      <point x="282" y="674" type="line"/>
      <point x="280" y="674" type="line"/>
      <point x="280" y="452" type="line"/>
      <point x="245" y="452" type="line"/>
      <point x="245" y="720" type="line"/>
      <point x="306" y="720" type="line"/>
      <point x="367" y="500" type="line"/>
      <point x="369" y="500" type="line"/>
      <point x="430" y="720" type="line"/>
      <point x="489" y="720" type="line"/>
    </contour>
    <contour>
      <point x="202" y="687" type="line"/>
      <point x="131" y="687" type="line"/>
      <point x="131" y="452" type="line"/>
      <point x="92" y="452" type="line"/>
      <point x="92" y="687" type="line"/>
      <point x="21" y="687" type="line"/>
      <point x="21" y="720" type="line"/>
      <point x="202" y="720" type="line"/>
    </contour>
  </outline>
</glyph>
<glyph name="fi" format="1">
  <advance width="432"/>
  <unicode hex="FB01"/>
  <outline>
    <contour>
      <point x="376" y="643" type="line"/>
      <point x="308" y="643" type="line"/>
      <point x="308" y="720" type="line"/>
      <point x="376" y="720" type="line"/>
    </contour>
    <contour>
      <point x="371" y="0" type="line"/>
      <point x="312" y="0" type="line"/>
      <point x="312" y="517" type="line"/>
      <point x="371" y="517" type="line"/>
    </contour>
    <contour>
      <point x="265" y="699" type="line"/>
      <point x="248" y="709"/>
      <point x="233" y="715"/>
      <point x="209" y="715" type="curve" smooth="yes"/>
      <point x="174" y="715"/>
      <point x="150" y="693"/>
      <point x="150" y="639" type="curve" smooth="yes"/>
      <point x="150" y="512" type="line"/>
      <point x="246" y="512" type="line"/>
      <point x="246" y="469" type="line"/>
      <point x="150" y="469" type="line"/>
      <point x="150" y="0" type="line"/>
      <point x="92" y="0" type="line"/>
      <point x="92" y="469" type="line"/>
      <point x="11" y="469" type="line"/>
      <point x="11" y="512" type="line"/>
      <point x="92" y="512" type="line"/>
      <point x="92" y="641" type="line" smooth="yes"/>
      <point x="92" y="721"/>
      <point x="134" y="759"/>
      <point x="197" y="759" type="curve" smooth="yes"/>
      <point x="230" y="759"/>
      <point x="247" y="755"/>
      <point x="265" y="748" type="curve"/>
    </contour>
  </outline>
</glyph>
<glyph name="I.salt" format="1">
  <advance width="206"/>
  <outline>
    <contour>
      <point x="134" y="0" type="line"/>
      <point x="71" y="0" type="line"/>
      <point x="71" y="720" type="line"/>
      <point x="134" y="720" type="line"/>
    </contour>
  </outline>
</glyph>
<glyph name="bullet" format="1">
  <advance width="289"/>
  <outline>
    <contour>
      <point x="243" y="373" type="curve" smooth="yes"/>
      <point x="243" y="318"/>
      <point x="200" y="275"/>
      <point x="145" y="275" type="curve" smooth="yes"/>
      <point x="90" y="275"/>
      <point x="46" y="318"/>
      <point x="46" y="373" type="curve" smooth="yes"/>
      <point x="46" y="428"/>
      <point x="90" y="471"/>
      <point x="145" y="471" type="curve" smooth="yes"/>
      <point x="200" y="471"/>
      <point x="243" y="428"/>
    </contour>
  </outline>
</glyph>
<glyph name="macron" format="1">
  <advance width="392"/>
  <outline>
    <contour>
      <point x="306" y="616" type="line"/>
      <point x="86" y="616" type="line"/>
      <point x="86" y="660" type="line"/>
      <point x="306" y="660" type="line"/>
    </contour>
  </outline>
</glyph>
